<svg width="201" height="200" viewBox="0 0 201 200" fill="none" xmlns="http://www.w3.org/2000/svg">
<path d="M10.2635 127.474C-9.03339 103.347 1.36998 77.3272 20.9171 64.6341C23.0489 63.2497 25.0558 60.2218 25.3899 57.7229C28.5134 34.368 47.1335 17.2798 70.8011 17.0903C76.3676 17.0457 80.1855 15.4548 84.1548 11.4571C106.732 -11.2813 148.805 1.6715 157.29 34.0669C158.882 40.1467 161.165 43.2179 167.371 45.2367C189.684 52.4954 203.826 75.9344 200.523 98.6891C196.986 123.054 177.755 141.059 153.662 142.327C147.403 142.656 141.112 142.377 133.836 142.377C135.165 157.744 131.907 171.193 118.421 178.702C112.063 182.242 103.829 184.315 96.5951 183.961C78.0381 183.054 67.864 168.387 66.8359 142.591C59.5337 142.591 52.1491 142.48 44.7691 142.615C31.1284 142.865 19.67 138.177 10.2635 127.474ZM167.979 120.721C181.574 110.174 186.476 97.6531 182.565 83.4636C178.763 69.6702 167.945 61.0048 151.748 59.0353C145.395 58.2628 142.021 55.0729 141.956 48.521C141.933 46.1815 141.807 43.8243 141.484 41.5098C139.917 30.3076 131.31 20.8948 120.053 18.0974C108.735 15.2846 99.108 17.8089 92.38 27.8455C89.4326 32.2422 85.7239 34.079 80.5875 33.7819C77.3287 33.5934 74.0414 33.6611 70.7781 33.8309C54.8693 34.6589 42.7654 45.477 42.7532 61.3686C42.7458 71.1623 39.1869 75.449 30.7366 78.9671C20.9419 83.045 16.1546 94.3029 17.9316 104.768C19.7246 115.328 28.0883 124.478 38.3095 125.127C51.1119 125.941 63.9941 125.608 76.8394 125.494C78.7406 125.477 80.7791 124.176 82.4975 123.068C92.2778 116.764 103.251 114.8 113.033 120.542C122.531 126.117 132.077 126.136 141.906 125.468C150.352 124.893 158.692 122.74 167.979 120.721ZM108.403 136.328C99.6841 133.102 93.0886 134.181 88.1197 139.939C83.6211 145.151 82.5129 151.112 85.261 157.528C88.0406 164.018 94.565 168.124 101.368 167.567C108.523 166.981 113.506 163.184 116.027 156.426C118.73 149.181 116.556 143.055 108.403 136.328Z" fill="#5B7BE0"/>
<path d="M158.094 193.362C153.443 199.273 147.89 201.489 140.864 198.981C134.916 196.858 131.839 192.568 132.006 186.655C132.175 180.68 135.711 175.873 141.74 175.124C146.254 174.564 152.041 175.935 155.743 178.424C160.718 181.77 161.1 187.477 158.094 193.362Z" fill="#5B7BE0"/>
<path d="M133.02 89C127.481 88.0625 125.182 85.1784 126.258 80.9079C127.218 77.0912 130.956 75.0852 134.934 76.406C137.52 77.2651 140.533 80.1489 140.916 82.4393C141.588 86.461 138.172 88.7396 133.02 89Z" fill="#5B7BE0"/>
<path d="M62.885 76.4126C70.6793 75.1037 74.6295 76.9174 74.975 81.7341C75.3024 86.2987 72.3985 89.1996 67.3997 88.9893C64.7815 88.879 60.6553 86.8289 60.14 85.0199C59.4381 82.5553 61.5348 79.4843 62.885 76.4126Z" fill="#5B7BE0"/>
<path d="M91 85.35C91.7654 82.5257 91.6202 79.3271 94.2243 77.7982C98.8467 75.0843 104.893 75.4952 109.314 78.6734C113.208 81.4734 112.822 84.5688 108.455 86.9219C102.352 90.2098 96.3754 89.5305 91 85.35Z" fill="#5B7BE0"/>
</svg>
